<svg xmlns="http://www.w3.org/2000/svg" viewBox="0 0 553 120.25">
  <defs>
    <style>
      .cls-1 {
        fill: #3c7dc0;
      }

      .cls-2 {
        fill: #4a4a4a;
      }
    </style>
  </defs>
  <g id="code-logo" transform="translate(0 -0.75)">
    <path id="Path_1" data-name="Path 1" class="cls-1" d="M6.968,113.014,0,101.654,44.625,74.36,0,46.373l6.968-11.36L64.19,71.726V78.1Z"/>
    <path id="Path_2" data-name="Path 2" class="cls-2" d="M84.662,2.486h16.37V35.353a37.441,37.441,0,0,1,9.724-6.419,24.526,24.526,0,0,1,9.906-2.14,22.023,22.023,0,0,1,16.49,6.946q5.739,6.015,5.739,17.674V96H126.642V66.42q0-11.719-1.087-15.875a11.109,11.109,0,0,0-3.715-6.2,10.243,10.243,0,0,0-6.493-2.047,12.07,12.07,0,0,0-8.608,3.41,18.216,18.216,0,0,0-4.983,9.3q-.725,3.039-.725,13.89V96H84.662ZM202.4,28.531h16.43V96H202.4V88.869a32.34,32.34,0,0,1-9.7,6.79,26.541,26.541,0,0,1-10.54,2.077q-12.745,0-22.047-10.139t-9.3-25.207q0-15.627,9-25.611T181.682,26.8A27.212,27.212,0,0,1,192.8,29.089a30.326,30.326,0,0,1,9.6,6.884V28.53Zm-17.336,13.89a16.539,16.539,0,0,0-12.745,5.55q-5.073,5.552-5.074,14.233,0,8.744,5.165,14.386a16.56,16.56,0,0,0,12.715,5.643,16.861,16.861,0,0,0,12.926-5.55q5.135-5.55,5.134-14.541,0-8.8-5.134-14.263a17.067,17.067,0,0,0-12.987-5.457Zm109.766-.247-13.712,7.751a23.294,23.294,0,0,0-7.64-5.767,22.4,22.4,0,0,0-8.85-1.612q-9.24,0-14.95,5.674a19.627,19.627,0,0,0-5.707,14.542q0,8.619,5.5,14.076T263.9,82.295q11.053,0,17.214-7.751l12.987,9.116q-10.57,14.076-29.839,14.076-17.336,0-27.151-10.542a35.06,35.06,0,0,1-9.816-24.68,35.4,35.4,0,0,1,4.772-18.046,34.074,34.074,0,0,1,13.32-12.96,38.918,38.918,0,0,1,19.117-4.713,37.924,37.924,0,0,1,17.577,4,33.633,33.633,0,0,1,12.745,11.379Zm9.98-39.688H321.3V56.375l24.282-27.844h20.658L337.972,60.9,369.684,96H349.207L321.3,64.932V96h-16.49Zm75.772,26.045h14.134v8.5a18.031,18.031,0,0,1,6.1-7.628,14.451,14.451,0,0,1,8.336-2.6,15.105,15.105,0,0,1,6.7,1.736L410.724,43.1a11.122,11.122,0,0,0-4.772-1.488q-3.805,0-6.433,4.837t-2.627,18.975l.06,3.287V96H380.583Zm51.43,49.8a9.069,9.069,0,0,1,6.7,2.821A9.4,9.4,0,0,1,441.5,88a9.509,9.509,0,0,1-2.778,6.884,9.308,9.308,0,0,1-13.41,0A9.509,9.509,0,0,1,422.53,88a9.4,9.4,0,0,1,2.778-6.852A9.07,9.07,0,0,1,432.013,78.327ZM463.087.75a10,10,0,0,1,7.46,3.225,10.844,10.844,0,0,1,3.11,7.813,10.717,10.717,0,0,1-3.08,7.72,9.879,9.879,0,0,1-7.37,3.194,10.023,10.023,0,0,1-7.52-3.255,11.026,11.026,0,0,1-3.11-7.907,10.536,10.536,0,0,1,3.08-7.627A9.994,9.994,0,0,1,463.087.75Zm-8.275,27.781h16.55V96h-16.55ZM518.147,26.8A34.929,34.929,0,0,1,548.409,44.53,35.537,35.537,0,0,1,553,62.2a36.167,36.167,0,0,1-4.62,17.859,33.974,33.974,0,0,1-30.172,17.673,32.362,32.362,0,0,1-24.131-10.325,34.721,34.721,0,0,1-10-25.083,34.55,34.55,0,0,1,11.3-26.355,32.527,32.527,0,0,1,22.771-9.178Zm.242,15.937a16.721,16.721,0,0,0-12.775,5.488q-5.1,5.489-5.1,14.046,0,8.805,5.043,14.262a16.644,16.644,0,0,0,12.776,5.457A16.839,16.839,0,0,0,531.2,76.466q5.133-5.52,5.134-14.2t-5.044-14.108a16.827,16.827,0,0,0-12.9-5.426Z"/>
    <path id="Path_3" data-name="Path 3" class="cls-1" d="M84,106h60v15H84Z"/>
  </g>
</svg>
