<?xml version="1.0" encoding="UTF-8"?>
<svg width="228px" height="49px" viewBox="0 0 228 49" version="1.1" xmlns="http://www.w3.org/2000/svg" xmlns:xlink="http://www.w3.org/1999/xlink">
    <!-- Generator: Sketch 43.1 (39012) - http://www.bohemiancoding.com/sketch -->
    <title>Group 15</title>
    <desc>Created with Sketch.</desc>
    <defs></defs>
    <g id="DESKTOP-UI" stroke="none" stroke-width="1" fill="none" fill-rule="evenodd">
        <g id="Desktop-Drop-down" transform="translate(-64.000000, -37.000000)" fill-rule="nonzero">
            <g id="Group-15" transform="translate(64.000000, 37.000000)">
                <g id="Spectrum" transform="translate(70.000000, 9.000000)" fill="#FFFFFF">
                    <path d="M3.84766839,23.3025641 C2.53782383,22.8102564 1.55544041,22.2358974 0.736787565,21.4974359 C0.49119171,21.2512821 0.32746114,20.8410256 0.32746114,20.5128205 C0.32746114,20.0205128 0.573056995,19.5282051 0.98238342,19.2 C1.39170984,18.8717949 1.80103627,18.7076923 2.12849741,18.7076923 C2.53782383,18.7076923 2.94715026,18.8717949 3.35647668,19.2820513 C3.76580311,19.774359 4.42072539,20.1025641 5.23937824,20.5128205 C6.05803109,20.8410256 6.95854922,21.0051282 7.85906736,21.0051282 C9.08704663,21.0051282 10.0694301,20.7589744 10.7243523,20.3487179 C11.3792746,19.9384615 11.788601,19.3641026 11.788601,18.7076923 C11.788601,18.0512821 11.4611399,17.4769231 10.8062176,16.9846154 C10.1512953,16.574359 9.00518135,16.1641026 7.36787565,15.8358974 C3.19274611,15.0153846 1.0642487,13.2923077 1.0642487,10.6666667 C1.0642487,9.6 1.39170984,8.6974359 2.04663212,7.95897436 C2.7015544,7.22051282 3.52020725,6.64615385 4.50259067,6.31794872 C5.48497409,5.90769231 6.63108808,5.74358974 7.77720207,5.74358974 C9.16891192,5.74358974 10.4787565,5.98974359 11.5430052,6.4 C12.6072539,6.81025641 13.5896373,7.46666667 14.2445596,8.28717949 C14.4901554,8.61538462 14.653886,9.02564103 14.653886,9.35384615 C14.653886,9.76410256 14.4901554,10.0923077 14.080829,10.3384615 C13.8352332,10.5025641 13.507772,10.5846154 13.1803109,10.5846154 C12.6072539,10.5846154 12.1160622,10.3384615 11.6248705,9.92820513 C11.0518135,9.43589744 10.4787565,9.10769231 9.90569948,8.86153846 C9.33264249,8.61538462 8.59585492,8.53333333 7.69533679,8.53333333 C6.71295337,8.53333333 5.89430052,8.6974359 5.23937824,9.02564103 C4.58445596,9.35384615 4.25699482,9.84615385 4.25699482,10.4205128 C4.25699482,10.8307692 4.3388601,11.2410256 4.58445596,11.4871795 C4.83005181,11.8153846 5.23937824,12.0615385 5.81243523,12.3076923 C6.38549223,12.5538462 7.28601036,12.8 8.43212435,13.0461538 C10.8062176,13.5384615 12.5253886,14.1948718 13.507772,15.0153846 C14.4901554,15.8358974 14.9813472,16.9846154 14.9813472,18.2974359 C14.9813472,19.2820513 14.7357513,20.1846154 14.1626943,21.0051282 C13.5896373,21.825641 12.8528497,22.4820513 11.788601,22.974359 C10.7243523,23.4666667 9.57823834,23.7128205 8.10466321,23.8769231 C6.63108808,23.8769231 5.15751295,23.7128205 3.84766839,23.3025641 Z" id="Shape"></path>
                    <path d="M32.9098446,6.97435897 C34.3015544,7.79487179 35.3658031,8.86153846 36.184456,10.2564103 C37.0031088,11.6512821 37.3305699,13.2102564 37.3305699,14.8512821 C37.3305699,16.574359 37.0031088,18.1333333 36.2663212,19.4461538 C35.5295337,20.8410256 34.5471503,21.9076923 33.2373057,22.7282051 C31.9274611,23.5487179 30.5357513,23.8769231 28.9803109,23.8769231 C27.7523316,23.8769231 26.5243523,23.6307692 25.4601036,23.0564103 C24.3958549,22.4820513 23.4134715,21.825641 22.6766839,20.8410256 L22.6766839,29.7025641 C22.6766839,30.1948718 22.5129534,30.6051282 22.1854922,30.9333333 C21.8580311,31.2615385 21.4487047,31.425641 20.957513,31.425641 C20.4663212,31.425641 20.0569948,31.2615385 19.7295337,30.9333333 C19.4020725,30.6051282 19.238342,30.1948718 19.238342,29.7025641 L19.238342,14.7692308 C19.238342,13.0461538 19.6476684,11.4871795 20.4663212,10.174359 C21.2849741,8.77948718 22.3492228,7.71282051 23.6590674,6.89230769 C25.0507772,6.07179487 26.5243523,5.66153846 28.2435233,5.66153846 C29.9626943,5.74358974 31.5181347,6.15384615 32.9098446,6.97435897 Z M31.2725389,20.1846154 C32.173057,19.6102564 32.8279793,18.9538462 33.4010363,17.9692308 C33.892228,17.0666667 34.1378238,16 34.1378238,14.8512821 C34.1378238,13.7025641 33.892228,12.6358974 33.4010363,11.7333333 C32.9098446,10.8307692 32.173057,10.0923077 31.2725389,9.51794872 C30.3720207,8.94358974 29.3896373,8.6974359 28.3253886,8.6974359 C27.2611399,8.6974359 26.2787565,8.94358974 25.3782383,9.51794872 C24.4777202,10.0923077 23.8227979,10.7487179 23.3316062,11.7333333 C22.8404145,12.6358974 22.5948187,13.7025641 22.5948187,14.8512821 C22.5948187,16 22.8404145,17.0666667 23.3316062,17.9692308 C23.8227979,18.8717949 24.5595855,19.6102564 25.3782383,20.1846154 C26.2787565,20.7589744 27.2611399,21.0051282 28.3253886,21.0051282 C29.3896373,21.0051282 30.3720207,20.8410256 31.2725389,20.1846154 Z" id="Shape"></path>
                    <path d="M57.7968912,15.6717949 C57.5512953,15.9179487 57.2238342,16 56.8145078,16 L44.3709845,16 C44.6165803,17.5589744 45.2715026,18.7897436 46.4176166,19.6923077 C47.5637306,20.5948718 48.9554404,21.0871795 50.5927461,21.0871795 C51.2476684,21.0871795 51.9025907,21.0051282 52.6393782,20.7589744 C53.3761658,20.5128205 53.9492228,20.1846154 54.3585492,19.8564103 C54.6860104,19.6102564 55.0134715,19.5282051 55.4227979,19.5282051 C55.8321244,19.5282051 56.1595855,19.6102564 56.4051813,19.8564103 C56.8145078,20.1846154 56.9782383,20.5948718 56.9782383,21.0051282 C56.9782383,21.4153846 56.8145078,21.7435897 56.4870466,21.9897436 C55.7502591,22.5641026 54.8497409,23.0564103 53.7036269,23.4666667 C52.6393782,23.8769231 51.5751295,24.0410256 50.5108808,24.0410256 C48.7098446,24.0410256 47.1544041,23.6307692 45.680829,22.8923077 C44.2891192,22.1538462 43.1430052,21.0051282 42.4062176,19.6923077 C41.5875648,18.2974359 41.1782383,16.7384615 41.1782383,15.0153846 C41.1782383,13.2923077 41.5875648,11.7333333 42.3243523,10.3384615 C43.0611399,8.94358974 44.1253886,7.87692308 45.4352332,7.05641026 C46.7450777,6.31794872 48.3005181,5.90769231 50.0196891,5.90769231 C51.6569948,5.90769231 53.1305699,6.31794872 54.3585492,7.05641026 C55.5865285,7.79487179 56.4870466,8.86153846 57.1419689,10.174359 C57.7968912,11.4871795 58.1243523,13.0461538 58.1243523,14.7692308 C58.1243523,15.0974359 58.042487,15.425641 57.7968912,15.6717949 Z M46.3357513,9.92820513 C45.3533679,10.8307692 44.6984456,11.9794872 44.4528497,13.4564103 L55.2590674,13.4564103 C55.0953368,11.9794872 54.5222798,10.8307692 53.6217617,9.92820513 C52.7212435,9.02564103 51.5751295,8.61538462 50.1015544,8.61538462 C48.546114,8.61538462 47.3181347,9.02564103 46.3357513,9.92820513 Z" id="Shape"></path>
                    <path d="M65.3284974,22.8102564 C63.9367876,21.9897436 62.8725389,20.9230769 62.1357513,19.5282051 C61.3989637,18.1333333 60.9896373,16.574359 60.9896373,14.9333333 C60.9896373,13.2102564 61.3989637,11.6512821 62.1357513,10.2564103 C62.8725389,8.86153846 63.9367876,7.79487179 65.2466321,6.97435897 C66.5564767,6.23589744 68.1119171,5.82564103 69.8310881,5.82564103 C72.3689119,5.82564103 74.4974093,6.81025641 76.2165803,8.77948718 C76.4621762,9.02564103 76.5440415,9.27179487 76.5440415,9.6 C76.5440415,10.0923077 76.2984456,10.5025641 75.8072539,10.8307692 C75.561658,10.9948718 75.3160622,11.0769231 75.0704663,11.0769231 C74.5792746,11.0769231 74.1699482,10.9128205 73.7606218,10.5025641 C73.1875648,9.92820513 72.6145078,9.51794872 71.9595855,9.18974359 C71.3046632,8.94358974 70.5678756,8.77948718 69.7492228,8.77948718 C68.1119171,8.77948718 66.7202073,9.35384615 65.6559585,10.5025641 C64.5917098,11.6512821 64.1005181,13.1282051 64.1005181,14.9333333 C64.1005181,16.0820513 64.346114,17.1487179 64.8373057,18.1333333 C65.3284974,19.1179487 65.9834197,19.774359 66.8839378,20.3487179 C67.784456,20.9230769 68.7668394,21.1692308 69.9129534,21.1692308 C71.3865285,21.1692308 72.6145078,20.7589744 73.5150259,20.0205128 C73.9243523,19.6923077 74.3336788,19.5282051 74.7430052,19.5282051 C75.0704663,19.5282051 75.3160622,19.6102564 75.561658,19.8564103 C75.9709845,20.1846154 76.2165803,20.5948718 76.2165803,21.0051282 C76.2165803,21.3333333 76.0528497,21.6615385 75.8072539,21.9076923 C74.2518135,23.3846154 72.2870466,24.1230769 69.9129534,24.1230769 C68.2756477,23.9589744 66.7202073,23.6307692 65.3284974,22.8102564 Z" id="Shape"></path>
                    <path d="M90.1336788,21.0051282 C90.3792746,21.3333333 90.5430052,21.7435897 90.5430052,22.1538462 C90.5430052,22.6461538 90.3792746,22.974359 89.9699482,23.3025641 C89.642487,23.6307692 89.1512953,23.7948718 88.5782383,23.7948718 L88.0051813,23.7948718 C86.9409326,23.7948718 85.9585492,23.5487179 85.0580311,22.974359 C84.157513,22.4 83.5025907,21.6615385 83.011399,20.6769231 C82.5202073,19.6923077 82.2746114,18.625641 82.2746114,17.3948718 L82.2746114,9.27179487 L80.8010363,9.27179487 C80.3098446,9.27179487 79.9823834,9.10769231 79.6549223,8.86153846 C79.3274611,8.61538462 79.2455959,8.28717949 79.2455959,7.87692308 C79.2455959,7.46666667 79.4093264,7.05641026 79.6549223,6.81025641 C79.9005181,6.56410256 80.3098446,6.4 80.8010363,6.4 L82.2746114,6.4 L82.2746114,1.72307692 C82.2746114,1.23076923 82.438342,0.820512821 82.7658031,0.574358974 C83.0932642,0.246153846 83.5025907,0.0820512821 83.9119171,0.0820512821 C84.4031088,0.0820512821 84.8124352,0.246153846 85.1398964,0.574358974 C85.4673575,0.902564103 85.5492228,1.31282051 85.5492228,1.72307692 L85.5492228,6.4 L88.3326425,6.4 C88.8238342,6.4 89.1512953,6.56410256 89.4787565,6.81025641 C89.8062176,7.05641026 89.8880829,7.38461538 89.8880829,7.87692308 C89.8880829,8.28717949 89.7243523,8.61538462 89.4787565,8.86153846 C89.2331606,9.10769231 88.8238342,9.27179487 88.3326425,9.27179487 L85.5492228,9.27179487 L85.5492228,17.3948718 C85.5492228,18.2974359 85.7948187,19.0358974 86.2860104,19.6102564 C86.7772021,20.1846154 87.3502591,20.5128205 88.0870466,20.5128205 L89.2331606,20.5128205 C89.5606218,20.5948718 89.8880829,20.6769231 90.1336788,21.0051282 Z" id="Shape"></path>
                    <path d="M106.097409,6.23589744 C106.752332,6.56410256 107.079793,7.05641026 107.079793,7.54871795 L107.079793,7.87692308 C106.916062,8.61538462 106.42487,8.94358974 105.769948,8.94358974 C105.688083,8.94358974 105.524352,8.94358974 105.278756,8.86153846 C104.378238,8.6974359 103.723316,8.61538462 103.150259,8.61538462 C101.594819,8.61538462 100.284974,8.94358974 99.384456,9.68205128 C98.4020725,10.4205128 97.9108808,11.4051282 97.9108808,12.6358974 L97.9108808,22.2358974 C97.9108808,22.7282051 97.7471503,23.1384615 97.5015544,23.4666667 C97.2559585,23.7128205 96.8466321,23.8769231 96.2735751,23.8769231 C95.7823834,23.8769231 95.373057,23.7128205 95.0455959,23.4666667 C94.8,23.2205128 94.6362694,22.8102564 94.6362694,22.2358974 L94.6362694,7.63076923 C94.6362694,7.13846154 94.8,6.72820513 95.1274611,6.4 C95.4549223,6.07179487 95.7005181,5.98974359 96.2735751,5.98974359 C97.3378238,5.98974359 97.9108808,6.56410256 97.9108808,7.63076923 L97.9108808,8.28717949 C98.5658031,7.54871795 99.384456,6.89230769 100.366839,6.48205128 C101.349223,6.07179487 102.331606,5.82564103 103.47772,5.82564103 C104.541969,5.74358974 105.442487,5.90769231 106.097409,6.23589744 Z" id="Shape"></path>
                    <path d="M126.4,6.31794872 C126.727461,6.64615385 126.891192,7.05641026 126.891192,7.54871795 L126.891192,22.1538462 C126.891192,22.6461538 126.727461,23.0564103 126.4,23.3846154 C126.072539,23.7128205 125.663212,23.8769231 125.172021,23.8769231 C124.680829,23.8769231 124.271503,23.7128205 123.944041,23.3846154 C123.61658,23.0564103 123.45285,22.6461538 123.45285,22.1538462 L123.45285,21.825641 C122.716062,22.5641026 121.897409,23.0564103 120.996891,23.4666667 C120.014508,23.8769231 119.032124,24.0410256 117.88601,24.0410256 C116.412435,24.0410256 115.020725,23.7128205 113.874611,23.0564103 C112.646632,22.4 111.746114,21.4153846 111.091192,20.1846154 C110.436269,18.9538462 110.108808,17.3948718 110.108808,15.6717949 L110.108808,7.63076923 C110.108808,7.13846154 110.272539,6.72820513 110.6,6.4 C110.927461,6.07179487 111.336788,5.90769231 111.827979,5.90769231 C112.319171,5.90769231 112.728497,6.07179487 113.055959,6.4 C113.38342,6.72820513 113.54715,7.13846154 113.54715,7.63076923 L113.54715,15.6717949 C113.54715,17.4769231 114.038342,18.7897436 114.93886,19.6923077 C115.921244,20.5948718 117.149223,21.0871795 118.704663,21.0871795 C119.605181,21.0871795 120.423834,20.9230769 121.242487,20.5128205 C121.979275,20.1025641 122.552332,19.6102564 123.043523,19.0358974 C123.534715,18.4615385 123.698446,17.7230769 123.698446,16.9025641 L123.698446,7.63076923 C123.698446,7.13846154 123.862176,6.72820513 124.189637,6.4 C124.517098,6.07179487 124.926425,5.90769231 125.417617,5.90769231 C125.745078,5.90769231 126.154404,5.98974359 126.4,6.31794872 Z" id="Shape"></path>
                    <path d="M156.117098,7.63076923 C157.263212,8.86153846 157.836269,10.5846154 157.836269,12.8 L157.836269,22.1538462 C157.836269,22.6461538 157.672539,23.0564103 157.345078,23.3846154 C157.017617,23.7128205 156.60829,23.8769231 156.117098,23.8769231 C155.625907,23.8769231 155.21658,23.7128205 154.889119,23.3846154 C154.561658,23.0564103 154.397927,22.6461538 154.397927,22.1538462 L154.397927,12.8 C154.397927,11.4871795 154.070466,10.4205128 153.415544,9.76410256 C152.760622,9.10769231 151.860104,8.6974359 150.71399,8.6974359 C149.567876,8.6974359 148.667358,9.10769231 147.93057,9.84615385 C147.193782,10.6666667 146.866321,11.6512821 146.866321,12.8820513 L146.866321,22.1538462 C146.866321,22.6461538 146.702591,23.0564103 146.37513,23.3846154 C146.047668,23.7128205 145.638342,23.8769231 145.14715,23.8769231 C144.655959,23.8769231 144.246632,23.7128205 143.919171,23.3846154 C143.59171,23.0564103 143.427979,22.6461538 143.427979,22.1538462 L143.427979,12.8 C143.427979,11.4871795 143.100518,10.4205128 142.445596,9.76410256 C141.790674,9.10769231 140.890155,8.6974359 139.744041,8.6974359 C138.597927,8.6974359 137.615544,9.10769231 136.878756,9.84615385 C136.141969,10.6666667 135.814508,11.6512821 135.814508,12.8820513 L135.814508,22.1538462 C135.814508,22.6461538 135.650777,23.0564103 135.323316,23.3846154 C134.995855,23.7128205 134.586528,23.8769231 134.095337,23.8769231 C133.604145,23.8769231 133.194819,23.7128205 132.867358,23.3846154 C132.539896,23.0564103 132.376166,22.6461538 132.376166,22.1538462 L132.376166,7.54871795 C132.376166,7.05641026 132.539896,6.64615385 132.867358,6.31794872 C133.194819,5.98974359 133.604145,5.82564103 134.095337,5.82564103 C134.586528,5.82564103 134.995855,5.98974359 135.241451,6.23589744 C135.568912,6.56410256 135.732642,6.89230769 135.732642,7.38461538 C136.305699,6.81025641 136.960622,6.4 137.779275,6.07179487 C138.597927,5.74358974 139.41658,5.57948718 140.317098,5.57948718 C141.463212,5.57948718 142.445596,5.82564103 143.346114,6.23589744 C144.246632,6.64615385 144.98342,7.3025641 145.556477,8.12307692 C146.211399,7.3025641 147.030052,6.64615385 148.012435,6.23589744 C148.994819,5.82564103 150.059067,5.57948718 151.287047,5.57948718 C153.415544,5.74358974 154.970984,6.4 156.117098,7.63076923 Z" id="Shape"></path>
                </g>
                <g id="APP-Icon">
                    <g id="white-spectrum">
                        <polygon id="_Path_" fill="#FFFFFF" points="0.0101587302 48.9371795 12.3784127 48.9371795 25.8133333 24.5125641"></polygon>
                        <polygon id="_Path_2" fill="#FFFFFF" opacity="0.9" points="12.3784127 48.9371795 22.4863492 48.9371795 25.8133333 24.5125641"></polygon>
                        <polygon id="_Path_3" fill="#FFFFFF" opacity="0.8" points="25.711746 24.99 22.511746 48.9371795 33.2038095 48.9371795 25.8133333 24.5125641"></polygon>
                        <path d="M25.8133333,24.7135897 L33.1022222,48.9371795 C36.9879365,48.9371795 40.7720635,48.1582051 43.4133333,46.2484615 L25.8133333,24.5125641 L25.8133333,24.7135897 Z" id="_Path_4" fill="#FFFFFF" opacity="0.7"></path>
                        <polygon id="_Path_5" fill="#6EC8FF" points="25.8133333 24.7135897 33.2038095 48.9371795 33.2038095 48.9371795"></polygon>
                        <path d="M43.4133333,46.2484615 C45.8514286,44.4141026 47.5022222,41.6248718 47.7815873,37.5038462 L47.7815873,36.8253846 L25.7879365,24.5125641 L43.4133333,46.2484615 Z" id="_Path_6" fill="#FFFFFF" opacity="0.6"></path>
                        <path d="M47.8069841,36.8253846 C48.0101587,28.4576923 41.1022222,24.4120513 32.8228571,24.4120513 L25.711746,24.5125641 L47.8069841,36.8253846 Z" id="_Path_7" fill="#FFFFFF" opacity="0.5"></path>
                        <polygon id="_Path_8" fill="#ABE7FF" points="25.8133333 24.5125641 47.8069841 36.8253846 47.8069841 36.8253846 25.8895238 24.6130769"></polygon>
                        <polygon id="_Path_9" fill="#FFFFFF" points="47.8019048 0 35.4336508 0 21.9987302 24.4246154"></polygon>
                        <polygon id="_Path_10" fill="#FFFFFF" opacity="0.9" points="35.4336508 0 25.3257143 0 21.9987302 24.4246154"></polygon>
                        <polygon id="_Path_11" fill="#FFFFFF" opacity="0.8" points="22.1003175 23.9471795 25.3257143 0 14.608254 0 21.9987302 24.4246154"></polygon>
                        <path d="M21.9987302,24.2235897 L14.608254,0 C10.7225397,0 7.01460317,0.778974359 4.39873016,2.68871795 L22.024127,24.4246154 L22.024127,24.2235897 L21.9987302,24.2235897 Z" id="_Path_12" fill="#FFFFFF" opacity="0.7"></path>
                        <polygon id="_Path_13" fill="#6EC8FF" points="21.9987302 24.2235897 14.608254 0 14.608254 0"></polygon>
                        <path d="M4.39873016,2.68871795 C1.96063492,4.4225641 0.30984127,7.21179487 0.0304761905,11.4333333 L0.0304761905,12.1117949 L22.024127,24.4246154 L4.39873016,2.68871795 Z" id="_Path_14" fill="#FFFFFF" opacity="0.6"></path>
                        <path d="M0.00507936508,12.1017436 C-0.198095238,20.4694359 6.70984127,24.5150769 14.9892063,24.5150769 L22.1003175,24.4145641 L0.00507936508,12.1017436 Z" id="_Path_15" fill="#FFFFFF" opacity="0.5"></path>
                        <polygon id="_Path_16" fill="#ABE7FF" points="21.9987302 24.4246154 0.00507936508 12.1117949 0.00507936508 12.1117949 21.8971429 24.3241026"></polygon>
                    </g>
                </g>
            </g>
        </g>
    </g>
</svg>